# xmcd
#
# Track frame offsets:
#	150
#	9852
#	23232
#	38084
#	53736
#	67727
#	82966
#	99824
#	114577
#	129434
#
# Disc length: 1829 seconds
#
# Revision: 2
# Processed by: cddbd v1.5.2PL0 Copyright (c) Steve Scherf et al.
# Submitted via: audiograbber 1.83.01
#
DISCID=6607230a
DTITLE=Michael Nesmith and The First National Band - Nevada Fighter
DYEAR=1900
DGENRE=Oldies
TTITLE0=Michael Nesmith and The First National Band - Grand Ennui
TTITLE1=Michael Nesmith and The First National Band - Propinquity (I've Just Begu
TTITLE1=n To Care)
TTITLE2=Michael Nesmith and The First National Band - Here I Am
TTITLE3=Michael Nesmith and The First National Band - Only Bound
TTITLE4=Michael Nesmith and The First National Band - Nevada Fighter
TTITLE5=Michael Nesmith and The First National Band - Texas Morning
TTITLE6=Michael Nesmith and The First National Band - Tumbling Tumbleweeds
TTITLE7=Michael Nesmith and The First National Band - I Looked Away
TTITLE8=Michael Nesmith and The First National Band - Rainmaker
TTITLE9=Michael Nesmith and The First National Band - Rene
EXTD=
EXTT0=
EXTT1=
EXTT2=
EXTT3=
EXTT4=
EXTT5=
EXTT6=
EXTT7=
EXTT8=
EXTT9=
PLAYORDER=
